<?xml version="1.0" encoding="utf-8" standalone="no"?>
<!DOCTYPE svg PUBLIC "-//W3C//DTD SVG 1.1//EN"
  "http://www.w3.org/Graphics/SVG/1.1/DTD/svg11.dtd">
<svg xmlns:xlink="http://www.w3.org/1999/xlink" width="410.3325pt" height="312.30825pt" viewBox="0 0 410.3325 312.30825" xmlns="http://www.w3.org/2000/svg" version="1.1">
 <metadata>
  <rdf:RDF xmlns:dc="http://purl.org/dc/elements/1.1/" xmlns:cc="http://creativecommons.org/ns#" xmlns:rdf="http://www.w3.org/1999/02/22-rdf-syntax-ns#">
   <cc:Work>
    <dc:type rdf:resource="http://purl.org/dc/dcmitype/StillImage"/>
    <dc:date>2024-06-01T11:46:24.840425</dc:date>
    <dc:format>image/svg+xml</dc:format>
    <dc:creator>
     <cc:Agent>
      <dc:title>Matplotlib v3.8.3, https://matplotlib.org/</dc:title>
     </cc:Agent>
    </dc:creator>
   </cc:Work>
  </rdf:RDF>
 </metadata>
 <defs>
  <style type="text/css">*{stroke-linejoin: round; stroke-linecap: butt}</style>
 </defs>
 <g id="figure_1">
  <g id="patch_1">
   <path d="M 0 312.30825 
L 410.3325 312.30825 
L 410.3325 0 
L 0 0 
z
" style="fill: #ffffff"/>
  </g>
  <g id="axes_1">
   <g id="patch_2">
    <path d="M 46.0125 288.430125 
L 403.1325 288.430125 
L 403.1325 22.318125 
L 46.0125 22.318125 
z
" style="fill: #ffffff"/>
   </g>
   <g id="matplotlib.axis_1">
    <g id="xtick_1">
     <g id="line2d_1">
      <path d="M 58.965888 288.430125 
L 58.965888 22.318125 
" clip-path="url(#pc05dc64e73)" style="fill: none; stroke: #b0b0b0; stroke-width: 0.8; stroke-linecap: square"/>
     </g>
     <g id="line2d_2">
      <defs>
       <path id="m626074d82b" d="M 0 0 
L 0 3.5 
" style="stroke: #000000; stroke-width: 0.8"/>
      </defs>
      <g>
       <use xlink:href="#m626074d82b" x="58.965888" y="288.430125" style="stroke: #000000; stroke-width: 0.8"/>
      </g>
     </g>
     <g id="text_1">
      <!-- 0 -->
      <g transform="translate(55.784638 303.028562) scale(0.1 -0.1)">
       <defs>
        <path id="DejaVuSans-30" d="M 2034 4250 
Q 1547 4250 1301 3770 
Q 1056 3291 1056 2328 
Q 1056 1369 1301 889 
Q 1547 409 2034 409 
Q 2525 409 2770 889 
Q 3016 1369 3016 2328 
Q 3016 3291 2770 3770 
Q 2525 4250 2034 4250 
z
M 2034 4750 
Q 2819 4750 3233 4129 
Q 3647 3509 3647 2328 
Q 3647 1150 3233 529 
Q 2819 -91 2034 -91 
Q 1250 -91 836 529 
Q 422 1150 422 2328 
Q 422 3509 836 4129 
Q 1250 4750 2034 4750 
z
" transform="scale(0.015625)"/>
       </defs>
       <use xlink:href="#DejaVuSans-30"/>
      </g>
     </g>
    </g>
    <g id="xtick_2">
     <g id="line2d_3">
      <path d="M 124.552665 288.430125 
L 124.552665 22.318125 
" clip-path="url(#pc05dc64e73)" style="fill: none; stroke: #b0b0b0; stroke-width: 0.8; stroke-linecap: square"/>
     </g>
     <g id="line2d_4">
      <g>
       <use xlink:href="#m626074d82b" x="124.552665" y="288.430125" style="stroke: #000000; stroke-width: 0.8"/>
      </g>
     </g>
     <g id="text_2">
      <!-- 2000 -->
      <g transform="translate(111.827665 303.028562) scale(0.1 -0.1)">
       <defs>
        <path id="DejaVuSans-32" d="M 1228 531 
L 3431 531 
L 3431 0 
L 469 0 
L 469 531 
Q 828 903 1448 1529 
Q 2069 2156 2228 2338 
Q 2531 2678 2651 2914 
Q 2772 3150 2772 3378 
Q 2772 3750 2511 3984 
Q 2250 4219 1831 4219 
Q 1534 4219 1204 4116 
Q 875 4013 500 3803 
L 500 4441 
Q 881 4594 1212 4672 
Q 1544 4750 1819 4750 
Q 2544 4750 2975 4387 
Q 3406 4025 3406 3419 
Q 3406 3131 3298 2873 
Q 3191 2616 2906 2266 
Q 2828 2175 2409 1742 
Q 1991 1309 1228 531 
z
" transform="scale(0.015625)"/>
       </defs>
       <use xlink:href="#DejaVuSans-32"/>
       <use xlink:href="#DejaVuSans-30" x="63.623047"/>
       <use xlink:href="#DejaVuSans-30" x="127.246094"/>
       <use xlink:href="#DejaVuSans-30" x="190.869141"/>
      </g>
     </g>
    </g>
    <g id="xtick_3">
     <g id="line2d_5">
      <path d="M 190.139442 288.430125 
L 190.139442 22.318125 
" clip-path="url(#pc05dc64e73)" style="fill: none; stroke: #b0b0b0; stroke-width: 0.8; stroke-linecap: square"/>
     </g>
     <g id="line2d_6">
      <g>
       <use xlink:href="#m626074d82b" x="190.139442" y="288.430125" style="stroke: #000000; stroke-width: 0.8"/>
      </g>
     </g>
     <g id="text_3">
      <!-- 4000 -->
      <g transform="translate(177.414442 303.028562) scale(0.1 -0.1)">
       <defs>
        <path id="DejaVuSans-34" d="M 2419 4116 
L 825 1625 
L 2419 1625 
L 2419 4116 
z
M 2253 4666 
L 3047 4666 
L 3047 1625 
L 3713 1625 
L 3713 1100 
L 3047 1100 
L 3047 0 
L 2419 0 
L 2419 1100 
L 313 1100 
L 313 1709 
L 2253 4666 
z
" transform="scale(0.015625)"/>
       </defs>
       <use xlink:href="#DejaVuSans-34"/>
       <use xlink:href="#DejaVuSans-30" x="63.623047"/>
       <use xlink:href="#DejaVuSans-30" x="127.246094"/>
       <use xlink:href="#DejaVuSans-30" x="190.869141"/>
      </g>
     </g>
    </g>
    <g id="xtick_4">
     <g id="line2d_7">
      <path d="M 255.726219 288.430125 
L 255.726219 22.318125 
" clip-path="url(#pc05dc64e73)" style="fill: none; stroke: #b0b0b0; stroke-width: 0.8; stroke-linecap: square"/>
     </g>
     <g id="line2d_8">
      <g>
       <use xlink:href="#m626074d82b" x="255.726219" y="288.430125" style="stroke: #000000; stroke-width: 0.8"/>
      </g>
     </g>
     <g id="text_4">
      <!-- 6000 -->
      <g transform="translate(243.001219 303.028562) scale(0.1 -0.1)">
       <defs>
        <path id="DejaVuSans-36" d="M 2113 2584 
Q 1688 2584 1439 2293 
Q 1191 2003 1191 1497 
Q 1191 994 1439 701 
Q 1688 409 2113 409 
Q 2538 409 2786 701 
Q 3034 994 3034 1497 
Q 3034 2003 2786 2293 
Q 2538 2584 2113 2584 
z
M 3366 4563 
L 3366 3988 
Q 3128 4100 2886 4159 
Q 2644 4219 2406 4219 
Q 1781 4219 1451 3797 
Q 1122 3375 1075 2522 
Q 1259 2794 1537 2939 
Q 1816 3084 2150 3084 
Q 2853 3084 3261 2657 
Q 3669 2231 3669 1497 
Q 3669 778 3244 343 
Q 2819 -91 2113 -91 
Q 1303 -91 875 529 
Q 447 1150 447 2328 
Q 447 3434 972 4092 
Q 1497 4750 2381 4750 
Q 2619 4750 2861 4703 
Q 3103 4656 3366 4563 
z
" transform="scale(0.015625)"/>
       </defs>
       <use xlink:href="#DejaVuSans-36"/>
       <use xlink:href="#DejaVuSans-30" x="63.623047"/>
       <use xlink:href="#DejaVuSans-30" x="127.246094"/>
       <use xlink:href="#DejaVuSans-30" x="190.869141"/>
      </g>
     </g>
    </g>
    <g id="xtick_5">
     <g id="line2d_9">
      <path d="M 321.312996 288.430125 
L 321.312996 22.318125 
" clip-path="url(#pc05dc64e73)" style="fill: none; stroke: #b0b0b0; stroke-width: 0.8; stroke-linecap: square"/>
     </g>
     <g id="line2d_10">
      <g>
       <use xlink:href="#m626074d82b" x="321.312996" y="288.430125" style="stroke: #000000; stroke-width: 0.8"/>
      </g>
     </g>
     <g id="text_5">
      <!-- 8000 -->
      <g transform="translate(308.587996 303.028562) scale(0.1 -0.1)">
       <defs>
        <path id="DejaVuSans-38" d="M 2034 2216 
Q 1584 2216 1326 1975 
Q 1069 1734 1069 1313 
Q 1069 891 1326 650 
Q 1584 409 2034 409 
Q 2484 409 2743 651 
Q 3003 894 3003 1313 
Q 3003 1734 2745 1975 
Q 2488 2216 2034 2216 
z
M 1403 2484 
Q 997 2584 770 2862 
Q 544 3141 544 3541 
Q 544 4100 942 4425 
Q 1341 4750 2034 4750 
Q 2731 4750 3128 4425 
Q 3525 4100 3525 3541 
Q 3525 3141 3298 2862 
Q 3072 2584 2669 2484 
Q 3125 2378 3379 2068 
Q 3634 1759 3634 1313 
Q 3634 634 3220 271 
Q 2806 -91 2034 -91 
Q 1263 -91 848 271 
Q 434 634 434 1313 
Q 434 1759 690 2068 
Q 947 2378 1403 2484 
z
M 1172 3481 
Q 1172 3119 1398 2916 
Q 1625 2713 2034 2713 
Q 2441 2713 2670 2916 
Q 2900 3119 2900 3481 
Q 2900 3844 2670 4047 
Q 2441 4250 2034 4250 
Q 1625 4250 1398 4047 
Q 1172 3844 1172 3481 
z
" transform="scale(0.015625)"/>
       </defs>
       <use xlink:href="#DejaVuSans-38"/>
       <use xlink:href="#DejaVuSans-30" x="63.623047"/>
       <use xlink:href="#DejaVuSans-30" x="127.246094"/>
       <use xlink:href="#DejaVuSans-30" x="190.869141"/>
      </g>
     </g>
    </g>
    <g id="xtick_6">
     <g id="line2d_11">
      <path d="M 386.899773 288.430125 
L 386.899773 22.318125 
" clip-path="url(#pc05dc64e73)" style="fill: none; stroke: #b0b0b0; stroke-width: 0.8; stroke-linecap: square"/>
     </g>
     <g id="line2d_12">
      <g>
       <use xlink:href="#m626074d82b" x="386.899773" y="288.430125" style="stroke: #000000; stroke-width: 0.8"/>
      </g>
     </g>
     <g id="text_6">
      <!-- 10000 -->
      <g transform="translate(370.993523 303.028562) scale(0.1 -0.1)">
       <defs>
        <path id="DejaVuSans-31" d="M 794 531 
L 1825 531 
L 1825 4091 
L 703 3866 
L 703 4441 
L 1819 4666 
L 2450 4666 
L 2450 531 
L 3481 531 
L 3481 0 
L 794 0 
L 794 531 
z
" transform="scale(0.015625)"/>
       </defs>
       <use xlink:href="#DejaVuSans-31"/>
       <use xlink:href="#DejaVuSans-30" x="63.623047"/>
       <use xlink:href="#DejaVuSans-30" x="127.246094"/>
       <use xlink:href="#DejaVuSans-30" x="190.869141"/>
       <use xlink:href="#DejaVuSans-30" x="254.492188"/>
      </g>
     </g>
    </g>
   </g>
   <g id="matplotlib.axis_2">
    <g id="ytick_1">
     <g id="line2d_13">
      <path d="M 46.0125 276.37439 
L 403.1325 276.37439 
" clip-path="url(#pc05dc64e73)" style="fill: none; stroke: #b0b0b0; stroke-width: 0.8; stroke-linecap: square"/>
     </g>
     <g id="line2d_14">
      <defs>
       <path id="m570df0fb5b" d="M 0 0 
L -3.5 0 
" style="stroke: #000000; stroke-width: 0.8"/>
      </defs>
      <g>
       <use xlink:href="#m570df0fb5b" x="46.0125" y="276.37439" style="stroke: #000000; stroke-width: 0.8"/>
      </g>
     </g>
     <g id="text_7">
      <!-- 0 -->
      <g transform="translate(32.65 280.173608) scale(0.1 -0.1)">
       <use xlink:href="#DejaVuSans-30"/>
      </g>
     </g>
    </g>
    <g id="ytick_2">
     <g id="line2d_15">
      <path d="M 46.0125 226.043594 
L 403.1325 226.043594 
" clip-path="url(#pc05dc64e73)" style="fill: none; stroke: #b0b0b0; stroke-width: 0.8; stroke-linecap: square"/>
     </g>
     <g id="line2d_16">
      <g>
       <use xlink:href="#m570df0fb5b" x="46.0125" y="226.043594" style="stroke: #000000; stroke-width: 0.8"/>
      </g>
     </g>
     <g id="text_8">
      <!-- 5000 -->
      <g transform="translate(13.5625 229.842813) scale(0.1 -0.1)">
       <defs>
        <path id="DejaVuSans-35" d="M 691 4666 
L 3169 4666 
L 3169 4134 
L 1269 4134 
L 1269 2991 
Q 1406 3038 1543 3061 
Q 1681 3084 1819 3084 
Q 2600 3084 3056 2656 
Q 3513 2228 3513 1497 
Q 3513 744 3044 326 
Q 2575 -91 1722 -91 
Q 1428 -91 1123 -41 
Q 819 9 494 109 
L 494 744 
Q 775 591 1075 516 
Q 1375 441 1709 441 
Q 2250 441 2565 725 
Q 2881 1009 2881 1497 
Q 2881 1984 2565 2268 
Q 2250 2553 1709 2553 
Q 1456 2553 1204 2497 
Q 953 2441 691 2322 
L 691 4666 
z
" transform="scale(0.015625)"/>
       </defs>
       <use xlink:href="#DejaVuSans-35"/>
       <use xlink:href="#DejaVuSans-30" x="63.623047"/>
       <use xlink:href="#DejaVuSans-30" x="127.246094"/>
       <use xlink:href="#DejaVuSans-30" x="190.869141"/>
      </g>
     </g>
    </g>
    <g id="ytick_3">
     <g id="line2d_17">
      <path d="M 46.0125 175.712799 
L 403.1325 175.712799 
" clip-path="url(#pc05dc64e73)" style="fill: none; stroke: #b0b0b0; stroke-width: 0.8; stroke-linecap: square"/>
     </g>
     <g id="line2d_18">
      <g>
       <use xlink:href="#m570df0fb5b" x="46.0125" y="175.712799" style="stroke: #000000; stroke-width: 0.8"/>
      </g>
     </g>
     <g id="text_9">
      <!-- 10000 -->
      <g transform="translate(7.2 179.512018) scale(0.1 -0.1)">
       <use xlink:href="#DejaVuSans-31"/>
       <use xlink:href="#DejaVuSans-30" x="63.623047"/>
       <use xlink:href="#DejaVuSans-30" x="127.246094"/>
       <use xlink:href="#DejaVuSans-30" x="190.869141"/>
       <use xlink:href="#DejaVuSans-30" x="254.492188"/>
      </g>
     </g>
    </g>
    <g id="ytick_4">
     <g id="line2d_19">
      <path d="M 46.0125 125.382004 
L 403.1325 125.382004 
" clip-path="url(#pc05dc64e73)" style="fill: none; stroke: #b0b0b0; stroke-width: 0.8; stroke-linecap: square"/>
     </g>
     <g id="line2d_20">
      <g>
       <use xlink:href="#m570df0fb5b" x="46.0125" y="125.382004" style="stroke: #000000; stroke-width: 0.8"/>
      </g>
     </g>
     <g id="text_10">
      <!-- 15000 -->
      <g transform="translate(7.2 129.181223) scale(0.1 -0.1)">
       <use xlink:href="#DejaVuSans-31"/>
       <use xlink:href="#DejaVuSans-35" x="63.623047"/>
       <use xlink:href="#DejaVuSans-30" x="127.246094"/>
       <use xlink:href="#DejaVuSans-30" x="190.869141"/>
       <use xlink:href="#DejaVuSans-30" x="254.492188"/>
      </g>
     </g>
    </g>
    <g id="ytick_5">
     <g id="line2d_21">
      <path d="M 46.0125 75.051209 
L 403.1325 75.051209 
" clip-path="url(#pc05dc64e73)" style="fill: none; stroke: #b0b0b0; stroke-width: 0.8; stroke-linecap: square"/>
     </g>
     <g id="line2d_22">
      <g>
       <use xlink:href="#m570df0fb5b" x="46.0125" y="75.051209" style="stroke: #000000; stroke-width: 0.8"/>
      </g>
     </g>
     <g id="text_11">
      <!-- 20000 -->
      <g transform="translate(7.2 78.850428) scale(0.1 -0.1)">
       <use xlink:href="#DejaVuSans-32"/>
       <use xlink:href="#DejaVuSans-30" x="63.623047"/>
       <use xlink:href="#DejaVuSans-30" x="127.246094"/>
       <use xlink:href="#DejaVuSans-30" x="190.869141"/>
       <use xlink:href="#DejaVuSans-30" x="254.492188"/>
      </g>
     </g>
    </g>
    <g id="ytick_6">
     <g id="line2d_23">
      <path d="M 46.0125 24.720414 
L 403.1325 24.720414 
" clip-path="url(#pc05dc64e73)" style="fill: none; stroke: #b0b0b0; stroke-width: 0.8; stroke-linecap: square"/>
     </g>
     <g id="line2d_24">
      <g>
       <use xlink:href="#m570df0fb5b" x="46.0125" y="24.720414" style="stroke: #000000; stroke-width: 0.8"/>
      </g>
     </g>
     <g id="text_12">
      <!-- 25000 -->
      <g transform="translate(7.2 28.519633) scale(0.1 -0.1)">
       <use xlink:href="#DejaVuSans-32"/>
       <use xlink:href="#DejaVuSans-35" x="63.623047"/>
       <use xlink:href="#DejaVuSans-30" x="127.246094"/>
       <use xlink:href="#DejaVuSans-30" x="190.869141"/>
       <use xlink:href="#DejaVuSans-30" x="254.492188"/>
      </g>
     </g>
    </g>
   </g>
   <g id="line2d_25">
    <path d="M 62.245227 276.33355 
L 75.362583 275.85414 
L 91.759277 274.300732 
L 108.155971 272.122891 
L 124.552665 268.531298 
L 140.94936 264.569415 
L 157.346054 259.530556 
L 173.742748 254.013256 
L 190.139442 247.376068 
L 206.536136 239.779795 
L 222.932831 231.517406 
L 239.329525 221.608258 
L 255.726219 212.260003 
L 272.122913 201.047662 
L 288.519607 187.74985 
L 304.916302 176.730163 
L 321.312996 162.325409 
L 337.70969 148.893543 
L 354.106384 133.337507 
L 370.503079 116.294984 
L 386.899773 100.632874 
" clip-path="url(#pc05dc64e73)" style="fill: none; stroke: #1f77b4; stroke-width: 0.2; stroke-linecap: square"/>
    <defs>
     <path id="m9041abe15d" d="M 0 0.25 
C 0.066301 0.25 0.129895 0.223658 0.176777 0.176777 
C 0.223658 0.129895 0.25 0.066301 0.25 0 
C 0.25 -0.066301 0.223658 -0.129895 0.176777 -0.176777 
C 0.129895 -0.223658 0.066301 -0.25 0 -0.25 
C -0.066301 -0.25 -0.129895 -0.223658 -0.176777 -0.176777 
C -0.223658 -0.129895 -0.25 -0.066301 -0.25 0 
C -0.25 0.066301 -0.223658 0.129895 -0.176777 0.176777 
C -0.129895 0.223658 -0.066301 0.25 0 0.25 
z
" style="stroke: #1f77b4"/>
    </defs>
    <g clip-path="url(#pc05dc64e73)">
     <use xlink:href="#m9041abe15d" x="62.245227" y="276.33355" style="fill: #1f77b4; stroke: #1f77b4"/>
     <use xlink:href="#m9041abe15d" x="75.362583" y="275.85414" style="fill: #1f77b4; stroke: #1f77b4"/>
     <use xlink:href="#m9041abe15d" x="91.759277" y="274.300732" style="fill: #1f77b4; stroke: #1f77b4"/>
     <use xlink:href="#m9041abe15d" x="108.155971" y="272.122891" style="fill: #1f77b4; stroke: #1f77b4"/>
     <use xlink:href="#m9041abe15d" x="124.552665" y="268.531298" style="fill: #1f77b4; stroke: #1f77b4"/>
     <use xlink:href="#m9041abe15d" x="140.94936" y="264.569415" style="fill: #1f77b4; stroke: #1f77b4"/>
     <use xlink:href="#m9041abe15d" x="157.346054" y="259.530556" style="fill: #1f77b4; stroke: #1f77b4"/>
     <use xlink:href="#m9041abe15d" x="173.742748" y="254.013256" style="fill: #1f77b4; stroke: #1f77b4"/>
     <use xlink:href="#m9041abe15d" x="190.139442" y="247.376068" style="fill: #1f77b4; stroke: #1f77b4"/>
     <use xlink:href="#m9041abe15d" x="206.536136" y="239.779795" style="fill: #1f77b4; stroke: #1f77b4"/>
     <use xlink:href="#m9041abe15d" x="222.932831" y="231.517406" style="fill: #1f77b4; stroke: #1f77b4"/>
     <use xlink:href="#m9041abe15d" x="239.329525" y="221.608258" style="fill: #1f77b4; stroke: #1f77b4"/>
     <use xlink:href="#m9041abe15d" x="255.726219" y="212.260003" style="fill: #1f77b4; stroke: #1f77b4"/>
     <use xlink:href="#m9041abe15d" x="272.122913" y="201.047662" style="fill: #1f77b4; stroke: #1f77b4"/>
     <use xlink:href="#m9041abe15d" x="288.519607" y="187.74985" style="fill: #1f77b4; stroke: #1f77b4"/>
     <use xlink:href="#m9041abe15d" x="304.916302" y="176.730163" style="fill: #1f77b4; stroke: #1f77b4"/>
     <use xlink:href="#m9041abe15d" x="321.312996" y="162.325409" style="fill: #1f77b4; stroke: #1f77b4"/>
     <use xlink:href="#m9041abe15d" x="337.70969" y="148.893543" style="fill: #1f77b4; stroke: #1f77b4"/>
     <use xlink:href="#m9041abe15d" x="354.106384" y="133.337507" style="fill: #1f77b4; stroke: #1f77b4"/>
     <use xlink:href="#m9041abe15d" x="370.503079" y="116.294984" style="fill: #1f77b4; stroke: #1f77b4"/>
     <use xlink:href="#m9041abe15d" x="386.899773" y="100.632874" style="fill: #1f77b4; stroke: #1f77b4"/>
    </g>
   </g>
   <g id="line2d_26">
    <path d="M 62.245227 276.334125 
L 75.362583 275.921412 
L 91.759277 274.592679 
L 108.155971 272.46872 
L 124.552665 269.277748 
L 140.94936 265.382144 
L 157.346054 260.761777 
L 173.742748 255.154926 
L 190.139442 248.561592 
L 206.536136 241.897795 
L 222.932831 233.13017 
L 239.329525 223.980032 
L 255.726219 213.903807 
L 272.122913 203.827581 
L 288.519607 191.033493 
L 304.916302 179.044698 
L 321.312996 165.686905 
L 337.70969 152.137855 
L 354.106384 136.89769 
L 370.503079 121.295144 
L 386.899773 104.826907 
" clip-path="url(#pc05dc64e73)" style="fill: none; stroke: #ff7f0e; stroke-width: 0.2; stroke-linecap: square"/>
    <defs>
     <path id="mbb2a5a754e" d="M 0 -0.25 
L -0.25 0.25 
L 0.25 0.25 
z
" style="stroke: #ff7f0e; stroke-linejoin: miter"/>
    </defs>
    <g clip-path="url(#pc05dc64e73)">
     <use xlink:href="#mbb2a5a754e" x="62.245227" y="276.334125" style="fill: #ff7f0e; stroke: #ff7f0e; stroke-linejoin: miter"/>
     <use xlink:href="#mbb2a5a754e" x="75.362583" y="275.921412" style="fill: #ff7f0e; stroke: #ff7f0e; stroke-linejoin: miter"/>
     <use xlink:href="#mbb2a5a754e" x="91.759277" y="274.592679" style="fill: #ff7f0e; stroke: #ff7f0e; stroke-linejoin: miter"/>
     <use xlink:href="#mbb2a5a754e" x="108.155971" y="272.46872" style="fill: #ff7f0e; stroke: #ff7f0e; stroke-linejoin: miter"/>
     <use xlink:href="#mbb2a5a754e" x="124.552665" y="269.277748" style="fill: #ff7f0e; stroke: #ff7f0e; stroke-linejoin: miter"/>
     <use xlink:href="#mbb2a5a754e" x="140.94936" y="265.382144" style="fill: #ff7f0e; stroke: #ff7f0e; stroke-linejoin: miter"/>
     <use xlink:href="#mbb2a5a754e" x="157.346054" y="260.761777" style="fill: #ff7f0e; stroke: #ff7f0e; stroke-linejoin: miter"/>
     <use xlink:href="#mbb2a5a754e" x="173.742748" y="255.154926" style="fill: #ff7f0e; stroke: #ff7f0e; stroke-linejoin: miter"/>
     <use xlink:href="#mbb2a5a754e" x="190.139442" y="248.561592" style="fill: #ff7f0e; stroke: #ff7f0e; stroke-linejoin: miter"/>
     <use xlink:href="#mbb2a5a754e" x="206.536136" y="241.897795" style="fill: #ff7f0e; stroke: #ff7f0e; stroke-linejoin: miter"/>
     <use xlink:href="#mbb2a5a754e" x="222.932831" y="233.13017" style="fill: #ff7f0e; stroke: #ff7f0e; stroke-linejoin: miter"/>
     <use xlink:href="#mbb2a5a754e" x="239.329525" y="223.980032" style="fill: #ff7f0e; stroke: #ff7f0e; stroke-linejoin: miter"/>
     <use xlink:href="#mbb2a5a754e" x="255.726219" y="213.903807" style="fill: #ff7f0e; stroke: #ff7f0e; stroke-linejoin: miter"/>
     <use xlink:href="#mbb2a5a754e" x="272.122913" y="203.827581" style="fill: #ff7f0e; stroke: #ff7f0e; stroke-linejoin: miter"/>
     <use xlink:href="#mbb2a5a754e" x="288.519607" y="191.033493" style="fill: #ff7f0e; stroke: #ff7f0e; stroke-linejoin: miter"/>
     <use xlink:href="#mbb2a5a754e" x="304.916302" y="179.044698" style="fill: #ff7f0e; stroke: #ff7f0e; stroke-linejoin: miter"/>
     <use xlink:href="#mbb2a5a754e" x="321.312996" y="165.686905" style="fill: #ff7f0e; stroke: #ff7f0e; stroke-linejoin: miter"/>
     <use xlink:href="#mbb2a5a754e" x="337.70969" y="152.137855" style="fill: #ff7f0e; stroke: #ff7f0e; stroke-linejoin: miter"/>
     <use xlink:href="#mbb2a5a754e" x="354.106384" y="136.89769" style="fill: #ff7f0e; stroke: #ff7f0e; stroke-linejoin: miter"/>
     <use xlink:href="#mbb2a5a754e" x="370.503079" y="121.295144" style="fill: #ff7f0e; stroke: #ff7f0e; stroke-linejoin: miter"/>
     <use xlink:href="#mbb2a5a754e" x="386.899773" y="104.826907" style="fill: #ff7f0e; stroke: #ff7f0e; stroke-linejoin: miter"/>
    </g>
   </g>
   <g id="line2d_27">
    <path d="M 62.245227 276.324059 
L 75.362583 275.236914 
L 91.759277 271.462104 
L 108.155971 266.177371 
L 124.552665 258.255303 
L 140.94936 254.198641 
L 157.346054 242.552095 
L 173.742748 233.049641 
L 190.139442 224.885986 
L 206.536136 214.36685 
L 222.932831 211.347002 
L 239.329525 192.774939 
L 255.726219 189.5739 
L 272.122913 159.747871 
L 288.519607 103.266653 
L 304.916302 117.651194 
L 321.312996 71.548186 
L 337.70969 77.779138 
L 354.106384 70.863687 
L 370.503079 34.414125 
L 386.899773 35.068425 
" clip-path="url(#pc05dc64e73)" style="fill: none; stroke: #2ca02c; stroke-width: 0.2; stroke-linecap: square"/>
    <defs>
     <path id="m3aacfe1f78" d="M -0.25 0.25 
L 0.25 0.25 
L 0.25 -0.25 
L -0.25 -0.25 
z
" style="stroke: #2ca02c; stroke-linejoin: miter"/>
    </defs>
    <g clip-path="url(#pc05dc64e73)">
     <use xlink:href="#m3aacfe1f78" x="62.245227" y="276.324059" style="fill: #2ca02c; stroke: #2ca02c; stroke-linejoin: miter"/>
     <use xlink:href="#m3aacfe1f78" x="75.362583" y="275.236914" style="fill: #2ca02c; stroke: #2ca02c; stroke-linejoin: miter"/>
     <use xlink:href="#m3aacfe1f78" x="91.759277" y="271.462104" style="fill: #2ca02c; stroke: #2ca02c; stroke-linejoin: miter"/>
     <use xlink:href="#m3aacfe1f78" x="108.155971" y="266.177371" style="fill: #2ca02c; stroke: #2ca02c; stroke-linejoin: miter"/>
     <use xlink:href="#m3aacfe1f78" x="124.552665" y="258.255303" style="fill: #2ca02c; stroke: #2ca02c; stroke-linejoin: miter"/>
     <use xlink:href="#m3aacfe1f78" x="140.94936" y="254.198641" style="fill: #2ca02c; stroke: #2ca02c; stroke-linejoin: miter"/>
     <use xlink:href="#m3aacfe1f78" x="157.346054" y="242.552095" style="fill: #2ca02c; stroke: #2ca02c; stroke-linejoin: miter"/>
     <use xlink:href="#m3aacfe1f78" x="173.742748" y="233.049641" style="fill: #2ca02c; stroke: #2ca02c; stroke-linejoin: miter"/>
     <use xlink:href="#m3aacfe1f78" x="190.139442" y="224.885986" style="fill: #2ca02c; stroke: #2ca02c; stroke-linejoin: miter"/>
     <use xlink:href="#m3aacfe1f78" x="206.536136" y="214.36685" style="fill: #2ca02c; stroke: #2ca02c; stroke-linejoin: miter"/>
     <use xlink:href="#m3aacfe1f78" x="222.932831" y="211.347002" style="fill: #2ca02c; stroke: #2ca02c; stroke-linejoin: miter"/>
     <use xlink:href="#m3aacfe1f78" x="239.329525" y="192.774939" style="fill: #2ca02c; stroke: #2ca02c; stroke-linejoin: miter"/>
     <use xlink:href="#m3aacfe1f78" x="255.726219" y="189.5739" style="fill: #2ca02c; stroke: #2ca02c; stroke-linejoin: miter"/>
     <use xlink:href="#m3aacfe1f78" x="272.122913" y="159.747871" style="fill: #2ca02c; stroke: #2ca02c; stroke-linejoin: miter"/>
     <use xlink:href="#m3aacfe1f78" x="288.519607" y="103.266653" style="fill: #2ca02c; stroke: #2ca02c; stroke-linejoin: miter"/>
     <use xlink:href="#m3aacfe1f78" x="304.916302" y="117.651194" style="fill: #2ca02c; stroke: #2ca02c; stroke-linejoin: miter"/>
     <use xlink:href="#m3aacfe1f78" x="321.312996" y="71.548186" style="fill: #2ca02c; stroke: #2ca02c; stroke-linejoin: miter"/>
     <use xlink:href="#m3aacfe1f78" x="337.70969" y="77.779138" style="fill: #2ca02c; stroke: #2ca02c; stroke-linejoin: miter"/>
     <use xlink:href="#m3aacfe1f78" x="354.106384" y="70.863687" style="fill: #2ca02c; stroke: #2ca02c; stroke-linejoin: miter"/>
     <use xlink:href="#m3aacfe1f78" x="370.503079" y="34.414125" style="fill: #2ca02c; stroke: #2ca02c; stroke-linejoin: miter"/>
     <use xlink:href="#m3aacfe1f78" x="386.899773" y="35.068425" style="fill: #2ca02c; stroke: #2ca02c; stroke-linejoin: miter"/>
    </g>
   </g>
   <g id="LineCollection_1">
    <path d="M 62.245227 276.33395 
L 62.245227 276.333149 
" clip-path="url(#pc05dc64e73)" style="fill: none; stroke: #ff0000; stroke-width: 1.5"/>
   </g>
   <g id="LineCollection_2">
    <path d="M 75.362583 275.859337 
L 75.362583 275.848944 
" clip-path="url(#pc05dc64e73)" style="fill: none; stroke: #ff0000; stroke-width: 1.5"/>
   </g>
   <g id="LineCollection_3">
    <path d="M 91.759277 274.32145 
L 91.759277 274.280013 
" clip-path="url(#pc05dc64e73)" style="fill: none; stroke: #ff0000; stroke-width: 1.5"/>
   </g>
   <g id="LineCollection_4">
    <path d="M 108.155971 272.162706 
L 108.155971 272.083076 
" clip-path="url(#pc05dc64e73)" style="fill: none; stroke: #ff0000; stroke-width: 1.5"/>
   </g>
   <g id="LineCollection_5">
    <path d="M 124.552665 268.602305 
L 124.552665 268.46029 
" clip-path="url(#pc05dc64e73)" style="fill: none; stroke: #ff0000; stroke-width: 1.5"/>
   </g>
   <g id="LineCollection_6">
    <path d="M 140.94936 264.640989 
L 140.94936 264.49784 
" clip-path="url(#pc05dc64e73)" style="fill: none; stroke: #ff0000; stroke-width: 1.5"/>
   </g>
   <g id="LineCollection_7">
    <path d="M 157.346054 259.635001 
L 157.346054 259.426112 
" clip-path="url(#pc05dc64e73)" style="fill: none; stroke: #ff0000; stroke-width: 1.5"/>
   </g>
   <g id="LineCollection_8">
    <path d="M 173.742748 254.194276 
L 173.742748 253.832236 
" clip-path="url(#pc05dc64e73)" style="fill: none; stroke: #ff0000; stroke-width: 1.5"/>
   </g>
   <g id="LineCollection_9">
    <path d="M 190.139442 247.521506 
L 190.139442 247.230631 
" clip-path="url(#pc05dc64e73)" style="fill: none; stroke: #ff0000; stroke-width: 1.5"/>
   </g>
   <g id="LineCollection_10">
    <path d="M 206.536136 239.992346 
L 206.536136 239.567243 
" clip-path="url(#pc05dc64e73)" style="fill: none; stroke: #ff0000; stroke-width: 1.5"/>
   </g>
   <g id="LineCollection_11">
    <path d="M 222.932831 231.682944 
L 222.932831 231.351869 
" clip-path="url(#pc05dc64e73)" style="fill: none; stroke: #ff0000; stroke-width: 1.5"/>
   </g>
   <g id="LineCollection_12">
    <path d="M 239.329525 221.80748 
L 239.329525 221.409036 
" clip-path="url(#pc05dc64e73)" style="fill: none; stroke: #ff0000; stroke-width: 1.5"/>
   </g>
   <g id="LineCollection_13">
    <path d="M 255.726219 212.385057 
L 255.726219 212.134948 
" clip-path="url(#pc05dc64e73)" style="fill: none; stroke: #ff0000; stroke-width: 1.5"/>
   </g>
   <g id="LineCollection_14">
    <path d="M 272.122913 201.340362 
L 272.122913 200.754961 
" clip-path="url(#pc05dc64e73)" style="fill: none; stroke: #ff0000; stroke-width: 1.5"/>
   </g>
   <g id="LineCollection_15">
    <path d="M 288.519607 188.249087 
L 288.519607 187.250613 
" clip-path="url(#pc05dc64e73)" style="fill: none; stroke: #ff0000; stroke-width: 1.5"/>
   </g>
   <g id="LineCollection_16">
    <path d="M 304.916302 177.145153 
L 304.916302 176.315173 
" clip-path="url(#pc05dc64e73)" style="fill: none; stroke: #ff0000; stroke-width: 1.5"/>
   </g>
   <g id="LineCollection_17">
    <path d="M 321.312996 162.835799 
L 321.312996 161.815018 
" clip-path="url(#pc05dc64e73)" style="fill: none; stroke: #ff0000; stroke-width: 1.5"/>
   </g>
   <g id="LineCollection_18">
    <path d="M 337.70969 149.353118 
L 337.70969 148.433968 
" clip-path="url(#pc05dc64e73)" style="fill: none; stroke: #ff0000; stroke-width: 1.5"/>
   </g>
   <g id="LineCollection_19">
    <path d="M 354.106384 133.793284 
L 354.106384 132.88173 
" clip-path="url(#pc05dc64e73)" style="fill: none; stroke: #ff0000; stroke-width: 1.5"/>
   </g>
   <g id="LineCollection_20">
    <path d="M 370.503079 116.850738 
L 370.503079 115.73923 
" clip-path="url(#pc05dc64e73)" style="fill: none; stroke: #ff0000; stroke-width: 1.5"/>
   </g>
   <g id="LineCollection_21">
    <path d="M 386.899773 101.036871 
L 386.899773 100.228877 
" clip-path="url(#pc05dc64e73)" style="fill: none; stroke: #ff0000; stroke-width: 1.5"/>
   </g>
   <g id="line2d_28">
    <path d="M 62.245227 276.33355 
" clip-path="url(#pc05dc64e73)" style="fill: none; stroke: #ff0000; stroke-width: 1.5; stroke-linecap: square"/>
   </g>
   <g id="line2d_29">
    <path d="M 75.362583 275.85414 
" clip-path="url(#pc05dc64e73)" style="fill: none; stroke: #ff0000; stroke-width: 1.5; stroke-linecap: square"/>
   </g>
   <g id="line2d_30">
    <path d="M 91.759277 274.300732 
" clip-path="url(#pc05dc64e73)" style="fill: none; stroke: #ff0000; stroke-width: 1.5; stroke-linecap: square"/>
   </g>
   <g id="line2d_31">
    <path d="M 108.155971 272.122891 
" clip-path="url(#pc05dc64e73)" style="fill: none; stroke: #ff0000; stroke-width: 1.5; stroke-linecap: square"/>
   </g>
   <g id="line2d_32">
    <path d="M 124.552665 268.531298 
" clip-path="url(#pc05dc64e73)" style="fill: none; stroke: #ff0000; stroke-width: 1.5; stroke-linecap: square"/>
   </g>
   <g id="line2d_33">
    <path d="M 140.94936 264.569415 
" clip-path="url(#pc05dc64e73)" style="fill: none; stroke: #ff0000; stroke-width: 1.5; stroke-linecap: square"/>
   </g>
   <g id="line2d_34">
    <path d="M 157.346054 259.530556 
" clip-path="url(#pc05dc64e73)" style="fill: none; stroke: #ff0000; stroke-width: 1.5; stroke-linecap: square"/>
   </g>
   <g id="line2d_35">
    <path d="M 173.742748 254.013256 
" clip-path="url(#pc05dc64e73)" style="fill: none; stroke: #ff0000; stroke-width: 1.5; stroke-linecap: square"/>
   </g>
   <g id="line2d_36">
    <path d="M 190.139442 247.376068 
" clip-path="url(#pc05dc64e73)" style="fill: none; stroke: #ff0000; stroke-width: 1.5; stroke-linecap: square"/>
   </g>
   <g id="line2d_37">
    <path d="M 206.536136 239.779795 
" clip-path="url(#pc05dc64e73)" style="fill: none; stroke: #ff0000; stroke-width: 1.5; stroke-linecap: square"/>
   </g>
   <g id="line2d_38">
    <path d="M 222.932831 231.517406 
" clip-path="url(#pc05dc64e73)" style="fill: none; stroke: #ff0000; stroke-width: 1.5; stroke-linecap: square"/>
   </g>
   <g id="line2d_39">
    <path d="M 239.329525 221.608258 
" clip-path="url(#pc05dc64e73)" style="fill: none; stroke: #ff0000; stroke-width: 1.5; stroke-linecap: square"/>
   </g>
   <g id="line2d_40">
    <path d="M 255.726219 212.260003 
" clip-path="url(#pc05dc64e73)" style="fill: none; stroke: #ff0000; stroke-width: 1.5; stroke-linecap: square"/>
   </g>
   <g id="line2d_41">
    <path d="M 272.122913 201.047662 
" clip-path="url(#pc05dc64e73)" style="fill: none; stroke: #ff0000; stroke-width: 1.5; stroke-linecap: square"/>
   </g>
   <g id="line2d_42">
    <path d="M 288.519607 187.74985 
" clip-path="url(#pc05dc64e73)" style="fill: none; stroke: #ff0000; stroke-width: 1.5; stroke-linecap: square"/>
   </g>
   <g id="line2d_43">
    <path d="M 304.916302 176.730163 
" clip-path="url(#pc05dc64e73)" style="fill: none; stroke: #ff0000; stroke-width: 1.5; stroke-linecap: square"/>
   </g>
   <g id="line2d_44">
    <path d="M 321.312996 162.325409 
" clip-path="url(#pc05dc64e73)" style="fill: none; stroke: #ff0000; stroke-width: 1.5; stroke-linecap: square"/>
   </g>
   <g id="line2d_45">
    <path d="M 337.70969 148.893543 
" clip-path="url(#pc05dc64e73)" style="fill: none; stroke: #ff0000; stroke-width: 1.5; stroke-linecap: square"/>
   </g>
   <g id="line2d_46">
    <path d="M 354.106384 133.337507 
" clip-path="url(#pc05dc64e73)" style="fill: none; stroke: #ff0000; stroke-width: 1.5; stroke-linecap: square"/>
   </g>
   <g id="line2d_47">
    <path d="M 370.503079 116.294984 
" clip-path="url(#pc05dc64e73)" style="fill: none; stroke: #ff0000; stroke-width: 1.5; stroke-linecap: square"/>
   </g>
   <g id="line2d_48">
    <path d="M 386.899773 100.632874 
" clip-path="url(#pc05dc64e73)" style="fill: none; stroke: #ff0000; stroke-width: 1.5; stroke-linecap: square"/>
   </g>
   <g id="patch_3">
    <path d="M 46.0125 288.430125 
L 46.0125 22.318125 
" style="fill: none; stroke: #000000; stroke-width: 0.8; stroke-linejoin: miter; stroke-linecap: square"/>
   </g>
   <g id="patch_4">
    <path d="M 403.1325 288.430125 
L 403.1325 22.318125 
" style="fill: none; stroke: #000000; stroke-width: 0.8; stroke-linejoin: miter; stroke-linecap: square"/>
   </g>
   <g id="patch_5">
    <path d="M 46.0125 288.430125 
L 403.1325 288.430125 
" style="fill: none; stroke: #000000; stroke-width: 0.8; stroke-linejoin: miter; stroke-linecap: square"/>
   </g>
   <g id="patch_6">
    <path d="M 46.0125 22.318125 
L 403.1325 22.318125 
" style="fill: none; stroke: #000000; stroke-width: 0.8; stroke-linejoin: miter; stroke-linecap: square"/>
   </g>
   <g id="text_13">
    <!-- out_measure_nanosec_pointer_access_err -->
    <g transform="translate(98.31375 16.318125) scale(0.12 -0.12)">
     <defs>
      <path id="DejaVuSans-6f" d="M 1959 3097 
Q 1497 3097 1228 2736 
Q 959 2375 959 1747 
Q 959 1119 1226 758 
Q 1494 397 1959 397 
Q 2419 397 2687 759 
Q 2956 1122 2956 1747 
Q 2956 2369 2687 2733 
Q 2419 3097 1959 3097 
z
M 1959 3584 
Q 2709 3584 3137 3096 
Q 3566 2609 3566 1747 
Q 3566 888 3137 398 
Q 2709 -91 1959 -91 
Q 1206 -91 779 398 
Q 353 888 353 1747 
Q 353 2609 779 3096 
Q 1206 3584 1959 3584 
z
" transform="scale(0.015625)"/>
      <path id="DejaVuSans-75" d="M 544 1381 
L 544 3500 
L 1119 3500 
L 1119 1403 
Q 1119 906 1312 657 
Q 1506 409 1894 409 
Q 2359 409 2629 706 
Q 2900 1003 2900 1516 
L 2900 3500 
L 3475 3500 
L 3475 0 
L 2900 0 
L 2900 538 
Q 2691 219 2414 64 
Q 2138 -91 1772 -91 
Q 1169 -91 856 284 
Q 544 659 544 1381 
z
M 1991 3584 
L 1991 3584 
z
" transform="scale(0.015625)"/>
      <path id="DejaVuSans-74" d="M 1172 4494 
L 1172 3500 
L 2356 3500 
L 2356 3053 
L 1172 3053 
L 1172 1153 
Q 1172 725 1289 603 
Q 1406 481 1766 481 
L 2356 481 
L 2356 0 
L 1766 0 
Q 1100 0 847 248 
Q 594 497 594 1153 
L 594 3053 
L 172 3053 
L 172 3500 
L 594 3500 
L 594 4494 
L 1172 4494 
z
" transform="scale(0.015625)"/>
      <path id="DejaVuSans-5f" d="M 3263 -1063 
L 3263 -1509 
L -63 -1509 
L -63 -1063 
L 3263 -1063 
z
" transform="scale(0.015625)"/>
      <path id="DejaVuSans-6d" d="M 3328 2828 
Q 3544 3216 3844 3400 
Q 4144 3584 4550 3584 
Q 5097 3584 5394 3201 
Q 5691 2819 5691 2113 
L 5691 0 
L 5113 0 
L 5113 2094 
Q 5113 2597 4934 2840 
Q 4756 3084 4391 3084 
Q 3944 3084 3684 2787 
Q 3425 2491 3425 1978 
L 3425 0 
L 2847 0 
L 2847 2094 
Q 2847 2600 2669 2842 
Q 2491 3084 2119 3084 
Q 1678 3084 1418 2786 
Q 1159 2488 1159 1978 
L 1159 0 
L 581 0 
L 581 3500 
L 1159 3500 
L 1159 2956 
Q 1356 3278 1631 3431 
Q 1906 3584 2284 3584 
Q 2666 3584 2933 3390 
Q 3200 3197 3328 2828 
z
" transform="scale(0.015625)"/>
      <path id="DejaVuSans-65" d="M 3597 1894 
L 3597 1613 
L 953 1613 
Q 991 1019 1311 708 
Q 1631 397 2203 397 
Q 2534 397 2845 478 
Q 3156 559 3463 722 
L 3463 178 
Q 3153 47 2828 -22 
Q 2503 -91 2169 -91 
Q 1331 -91 842 396 
Q 353 884 353 1716 
Q 353 2575 817 3079 
Q 1281 3584 2069 3584 
Q 2775 3584 3186 3129 
Q 3597 2675 3597 1894 
z
M 3022 2063 
Q 3016 2534 2758 2815 
Q 2500 3097 2075 3097 
Q 1594 3097 1305 2825 
Q 1016 2553 972 2059 
L 3022 2063 
z
" transform="scale(0.015625)"/>
      <path id="DejaVuSans-61" d="M 2194 1759 
Q 1497 1759 1228 1600 
Q 959 1441 959 1056 
Q 959 750 1161 570 
Q 1363 391 1709 391 
Q 2188 391 2477 730 
Q 2766 1069 2766 1631 
L 2766 1759 
L 2194 1759 
z
M 3341 1997 
L 3341 0 
L 2766 0 
L 2766 531 
Q 2569 213 2275 61 
Q 1981 -91 1556 -91 
Q 1019 -91 701 211 
Q 384 513 384 1019 
Q 384 1609 779 1909 
Q 1175 2209 1959 2209 
L 2766 2209 
L 2766 2266 
Q 2766 2663 2505 2880 
Q 2244 3097 1772 3097 
Q 1472 3097 1187 3025 
Q 903 2953 641 2809 
L 641 3341 
Q 956 3463 1253 3523 
Q 1550 3584 1831 3584 
Q 2591 3584 2966 3190 
Q 3341 2797 3341 1997 
z
" transform="scale(0.015625)"/>
      <path id="DejaVuSans-73" d="M 2834 3397 
L 2834 2853 
Q 2591 2978 2328 3040 
Q 2066 3103 1784 3103 
Q 1356 3103 1142 2972 
Q 928 2841 928 2578 
Q 928 2378 1081 2264 
Q 1234 2150 1697 2047 
L 1894 2003 
Q 2506 1872 2764 1633 
Q 3022 1394 3022 966 
Q 3022 478 2636 193 
Q 2250 -91 1575 -91 
Q 1294 -91 989 -36 
Q 684 19 347 128 
L 347 722 
Q 666 556 975 473 
Q 1284 391 1588 391 
Q 1994 391 2212 530 
Q 2431 669 2431 922 
Q 2431 1156 2273 1281 
Q 2116 1406 1581 1522 
L 1381 1569 
Q 847 1681 609 1914 
Q 372 2147 372 2553 
Q 372 3047 722 3315 
Q 1072 3584 1716 3584 
Q 2034 3584 2315 3537 
Q 2597 3491 2834 3397 
z
" transform="scale(0.015625)"/>
      <path id="DejaVuSans-72" d="M 2631 2963 
Q 2534 3019 2420 3045 
Q 2306 3072 2169 3072 
Q 1681 3072 1420 2755 
Q 1159 2438 1159 1844 
L 1159 0 
L 581 0 
L 581 3500 
L 1159 3500 
L 1159 2956 
Q 1341 3275 1631 3429 
Q 1922 3584 2338 3584 
Q 2397 3584 2469 3576 
Q 2541 3569 2628 3553 
L 2631 2963 
z
" transform="scale(0.015625)"/>
      <path id="DejaVuSans-6e" d="M 3513 2113 
L 3513 0 
L 2938 0 
L 2938 2094 
Q 2938 2591 2744 2837 
Q 2550 3084 2163 3084 
Q 1697 3084 1428 2787 
Q 1159 2491 1159 1978 
L 1159 0 
L 581 0 
L 581 3500 
L 1159 3500 
L 1159 2956 
Q 1366 3272 1645 3428 
Q 1925 3584 2291 3584 
Q 2894 3584 3203 3211 
Q 3513 2838 3513 2113 
z
" transform="scale(0.015625)"/>
      <path id="DejaVuSans-63" d="M 3122 3366 
L 3122 2828 
Q 2878 2963 2633 3030 
Q 2388 3097 2138 3097 
Q 1578 3097 1268 2742 
Q 959 2388 959 1747 
Q 959 1106 1268 751 
Q 1578 397 2138 397 
Q 2388 397 2633 464 
Q 2878 531 3122 666 
L 3122 134 
Q 2881 22 2623 -34 
Q 2366 -91 2075 -91 
Q 1284 -91 818 406 
Q 353 903 353 1747 
Q 353 2603 823 3093 
Q 1294 3584 2113 3584 
Q 2378 3584 2631 3529 
Q 2884 3475 3122 3366 
z
" transform="scale(0.015625)"/>
      <path id="DejaVuSans-70" d="M 1159 525 
L 1159 -1331 
L 581 -1331 
L 581 3500 
L 1159 3500 
L 1159 2969 
Q 1341 3281 1617 3432 
Q 1894 3584 2278 3584 
Q 2916 3584 3314 3078 
Q 3713 2572 3713 1747 
Q 3713 922 3314 415 
Q 2916 -91 2278 -91 
Q 1894 -91 1617 61 
Q 1341 213 1159 525 
z
M 3116 1747 
Q 3116 2381 2855 2742 
Q 2594 3103 2138 3103 
Q 1681 3103 1420 2742 
Q 1159 2381 1159 1747 
Q 1159 1113 1420 752 
Q 1681 391 2138 391 
Q 2594 391 2855 752 
Q 3116 1113 3116 1747 
z
" transform="scale(0.015625)"/>
      <path id="DejaVuSans-69" d="M 603 3500 
L 1178 3500 
L 1178 0 
L 603 0 
L 603 3500 
z
M 603 4863 
L 1178 4863 
L 1178 4134 
L 603 4134 
L 603 4863 
z
" transform="scale(0.015625)"/>
     </defs>
     <use xlink:href="#DejaVuSans-6f"/>
     <use xlink:href="#DejaVuSans-75" x="61.181641"/>
     <use xlink:href="#DejaVuSans-74" x="124.560547"/>
     <use xlink:href="#DejaVuSans-5f" x="163.769531"/>
     <use xlink:href="#DejaVuSans-6d" x="213.769531"/>
     <use xlink:href="#DejaVuSans-65" x="311.181641"/>
     <use xlink:href="#DejaVuSans-61" x="372.705078"/>
     <use xlink:href="#DejaVuSans-73" x="433.984375"/>
     <use xlink:href="#DejaVuSans-75" x="486.083984"/>
     <use xlink:href="#DejaVuSans-72" x="549.462891"/>
     <use xlink:href="#DejaVuSans-65" x="588.326172"/>
     <use xlink:href="#DejaVuSans-5f" x="649.849609"/>
     <use xlink:href="#DejaVuSans-6e" x="699.849609"/>
     <use xlink:href="#DejaVuSans-61" x="763.228516"/>
     <use xlink:href="#DejaVuSans-6e" x="824.507812"/>
     <use xlink:href="#DejaVuSans-6f" x="887.886719"/>
     <use xlink:href="#DejaVuSans-73" x="949.068359"/>
     <use xlink:href="#DejaVuSans-65" x="1001.167969"/>
     <use xlink:href="#DejaVuSans-63" x="1062.691406"/>
     <use xlink:href="#DejaVuSans-5f" x="1117.671875"/>
     <use xlink:href="#DejaVuSans-70" x="1167.671875"/>
     <use xlink:href="#DejaVuSans-6f" x="1231.148438"/>
     <use xlink:href="#DejaVuSans-69" x="1292.330078"/>
     <use xlink:href="#DejaVuSans-6e" x="1320.113281"/>
     <use xlink:href="#DejaVuSans-74" x="1383.492188"/>
     <use xlink:href="#DejaVuSans-65" x="1422.701172"/>
     <use xlink:href="#DejaVuSans-72" x="1484.224609"/>
     <use xlink:href="#DejaVuSans-5f" x="1525.337891"/>
     <use xlink:href="#DejaVuSans-61" x="1575.337891"/>
     <use xlink:href="#DejaVuSans-63" x="1636.617188"/>
     <use xlink:href="#DejaVuSans-63" x="1691.597656"/>
     <use xlink:href="#DejaVuSans-65" x="1746.578125"/>
     <use xlink:href="#DejaVuSans-73" x="1808.101562"/>
     <use xlink:href="#DejaVuSans-73" x="1860.201172"/>
     <use xlink:href="#DejaVuSans-5f" x="1912.300781"/>
     <use xlink:href="#DejaVuSans-65" x="1962.300781"/>
     <use xlink:href="#DejaVuSans-72" x="2023.824219"/>
     <use xlink:href="#DejaVuSans-72" x="2063.1875"/>
    </g>
   </g>
   <g id="legend_1">
    <g id="patch_7">
     <path d="M 53.0125 75.186875 
L 203.595312 75.186875 
Q 205.595312 75.186875 205.595312 73.186875 
L 205.595312 29.318125 
Q 205.595312 27.318125 203.595312 27.318125 
L 53.0125 27.318125 
Q 51.0125 27.318125 51.0125 29.318125 
L 51.0125 73.186875 
Q 51.0125 75.186875 53.0125 75.186875 
z
" style="fill: #ffffff; opacity: 0.8; stroke: #cccccc; stroke-linejoin: miter"/>
    </g>
    <g id="line2d_49">
     <path d="M 55.0125 35.416562 
L 65.0125 35.416562 
L 75.0125 35.416562 
" style="fill: none; stroke: #1f77b4; stroke-width: 0.2; stroke-linecap: square"/>
     <g>
      <use xlink:href="#m9041abe15d" x="65.0125" y="35.416562" style="fill: #1f77b4; stroke: #1f77b4"/>
     </g>
    </g>
    <g id="text_14">
     <!-- pointer_access average -->
     <g transform="translate(83.0125 38.916562) scale(0.1 -0.1)">
      <defs>
       <path id="DejaVuSans-20" transform="scale(0.015625)"/>
       <path id="DejaVuSans-76" d="M 191 3500 
L 800 3500 
L 1894 563 
L 2988 3500 
L 3597 3500 
L 2284 0 
L 1503 0 
L 191 3500 
z
" transform="scale(0.015625)"/>
       <path id="DejaVuSans-67" d="M 2906 1791 
Q 2906 2416 2648 2759 
Q 2391 3103 1925 3103 
Q 1463 3103 1205 2759 
Q 947 2416 947 1791 
Q 947 1169 1205 825 
Q 1463 481 1925 481 
Q 2391 481 2648 825 
Q 2906 1169 2906 1791 
z
M 3481 434 
Q 3481 -459 3084 -895 
Q 2688 -1331 1869 -1331 
Q 1566 -1331 1297 -1286 
Q 1028 -1241 775 -1147 
L 775 -588 
Q 1028 -725 1275 -790 
Q 1522 -856 1778 -856 
Q 2344 -856 2625 -561 
Q 2906 -266 2906 331 
L 2906 616 
Q 2728 306 2450 153 
Q 2172 0 1784 0 
Q 1141 0 747 490 
Q 353 981 353 1791 
Q 353 2603 747 3093 
Q 1141 3584 1784 3584 
Q 2172 3584 2450 3431 
Q 2728 3278 2906 2969 
L 2906 3500 
L 3481 3500 
L 3481 434 
z
" transform="scale(0.015625)"/>
      </defs>
      <use xlink:href="#DejaVuSans-70"/>
      <use xlink:href="#DejaVuSans-6f" x="63.476562"/>
      <use xlink:href="#DejaVuSans-69" x="124.658203"/>
      <use xlink:href="#DejaVuSans-6e" x="152.441406"/>
      <use xlink:href="#DejaVuSans-74" x="215.820312"/>
      <use xlink:href="#DejaVuSans-65" x="255.029297"/>
      <use xlink:href="#DejaVuSans-72" x="316.552734"/>
      <use xlink:href="#DejaVuSans-5f" x="357.666016"/>
      <use xlink:href="#DejaVuSans-61" x="407.666016"/>
      <use xlink:href="#DejaVuSans-63" x="468.945312"/>
      <use xlink:href="#DejaVuSans-63" x="523.925781"/>
      <use xlink:href="#DejaVuSans-65" x="578.90625"/>
      <use xlink:href="#DejaVuSans-73" x="640.429688"/>
      <use xlink:href="#DejaVuSans-73" x="692.529297"/>
      <use xlink:href="#DejaVuSans-20" x="744.628906"/>
      <use xlink:href="#DejaVuSans-61" x="776.416016"/>
      <use xlink:href="#DejaVuSans-76" x="837.695312"/>
      <use xlink:href="#DejaVuSans-65" x="896.875"/>
      <use xlink:href="#DejaVuSans-72" x="958.398438"/>
      <use xlink:href="#DejaVuSans-61" x="999.511719"/>
      <use xlink:href="#DejaVuSans-67" x="1060.791016"/>
      <use xlink:href="#DejaVuSans-65" x="1124.267578"/>
     </g>
    </g>
    <g id="line2d_50">
     <path d="M 55.0125 50.372812 
L 65.0125 50.372812 
L 75.0125 50.372812 
" style="fill: none; stroke: #ff7f0e; stroke-width: 0.2; stroke-linecap: square"/>
     <g>
      <use xlink:href="#mbb2a5a754e" x="65.0125" y="50.372812" style="fill: #ff7f0e; stroke: #ff7f0e; stroke-linejoin: miter"/>
     </g>
    </g>
    <g id="text_15">
     <!-- pointer_access min -->
     <g transform="translate(83.0125 53.872812) scale(0.1 -0.1)">
      <use xlink:href="#DejaVuSans-70"/>
      <use xlink:href="#DejaVuSans-6f" x="63.476562"/>
      <use xlink:href="#DejaVuSans-69" x="124.658203"/>
      <use xlink:href="#DejaVuSans-6e" x="152.441406"/>
      <use xlink:href="#DejaVuSans-74" x="215.820312"/>
      <use xlink:href="#DejaVuSans-65" x="255.029297"/>
      <use xlink:href="#DejaVuSans-72" x="316.552734"/>
      <use xlink:href="#DejaVuSans-5f" x="357.666016"/>
      <use xlink:href="#DejaVuSans-61" x="407.666016"/>
      <use xlink:href="#DejaVuSans-63" x="468.945312"/>
      <use xlink:href="#DejaVuSans-63" x="523.925781"/>
      <use xlink:href="#DejaVuSans-65" x="578.90625"/>
      <use xlink:href="#DejaVuSans-73" x="640.429688"/>
      <use xlink:href="#DejaVuSans-73" x="692.529297"/>
      <use xlink:href="#DejaVuSans-20" x="744.628906"/>
      <use xlink:href="#DejaVuSans-6d" x="776.416016"/>
      <use xlink:href="#DejaVuSans-69" x="873.828125"/>
      <use xlink:href="#DejaVuSans-6e" x="901.611328"/>
     </g>
    </g>
    <g id="line2d_51">
     <path d="M 55.0125 65.329062 
L 65.0125 65.329062 
L 75.0125 65.329062 
" style="fill: none; stroke: #2ca02c; stroke-width: 0.2; stroke-linecap: square"/>
     <g>
      <use xlink:href="#m3aacfe1f78" x="65.0125" y="65.329062" style="fill: #2ca02c; stroke: #2ca02c; stroke-linejoin: miter"/>
     </g>
    </g>
    <g id="text_16">
     <!-- pointer_access max -->
     <g transform="translate(83.0125 68.829062) scale(0.1 -0.1)">
      <defs>
       <path id="DejaVuSans-78" d="M 3513 3500 
L 2247 1797 
L 3578 0 
L 2900 0 
L 1881 1375 
L 863 0 
L 184 0 
L 1544 1831 
L 300 3500 
L 978 3500 
L 1906 2253 
L 2834 3500 
L 3513 3500 
z
" transform="scale(0.015625)"/>
      </defs>
      <use xlink:href="#DejaVuSans-70"/>
      <use xlink:href="#DejaVuSans-6f" x="63.476562"/>
      <use xlink:href="#DejaVuSans-69" x="124.658203"/>
      <use xlink:href="#DejaVuSans-6e" x="152.441406"/>
      <use xlink:href="#DejaVuSans-74" x="215.820312"/>
      <use xlink:href="#DejaVuSans-65" x="255.029297"/>
      <use xlink:href="#DejaVuSans-72" x="316.552734"/>
      <use xlink:href="#DejaVuSans-5f" x="357.666016"/>
      <use xlink:href="#DejaVuSans-61" x="407.666016"/>
      <use xlink:href="#DejaVuSans-63" x="468.945312"/>
      <use xlink:href="#DejaVuSans-63" x="523.925781"/>
      <use xlink:href="#DejaVuSans-65" x="578.90625"/>
      <use xlink:href="#DejaVuSans-73" x="640.429688"/>
      <use xlink:href="#DejaVuSans-73" x="692.529297"/>
      <use xlink:href="#DejaVuSans-20" x="744.628906"/>
      <use xlink:href="#DejaVuSans-6d" x="776.416016"/>
      <use xlink:href="#DejaVuSans-61" x="873.828125"/>
      <use xlink:href="#DejaVuSans-78" x="935.107422"/>
     </g>
    </g>
   </g>
  </g>
 </g>
 <defs>
  <clipPath id="pc05dc64e73">
   <rect x="46.0125" y="22.318125" width="357.12" height="266.112"/>
  </clipPath>
 </defs>
</svg>
